Coordinates
version=1
nRows=11
nColumns=63
inDegrees=yes

Units are S.I. units (second, meters, Newtons, ...)
If the header above contains a line with 'inDegrees', this indicates whether rotational values are in degrees (yes) or radians (no).

endheader
time	pelvis_tilt	pelvis_list	pelvis_rotation	pelvis_tx	pelvis_ty	pelvis_tz	hip_flexion_r	hip_adduction_r	hip_rotation_r	knee_angle_r	knee_angle_r_beta	ankle_angle_r	subtalar_angle_r	mtp_angle_r	hip_flexion_l	hip_adduction_l	hip_rotation_l	knee_angle_l	knee_angle_l_beta	ankle_angle_l	subtalar_angle_l	mtp_angle_l	L5_S1_Flex_Ext	L5_S1_Lat_Bending	L5_S1_axial_rotation	L4_L5_Flex_Ext	L4_L5_Lat_Bending	L4_L5_axial_rotation	L3_L4_Flex_Ext	L3_L4_Lat_Bending	L3_L4_axial_rotation	L2_L3_Flex_Ext	L2_L3_Lat_Bending	L2_L3_axial_rotation	L1_L2_Flex_Ext	L1_L2_Lat_Bending	L1_L2_axial_rotation	L1_T12_Flex_Ext	L1_T12_Lat_Bending	L1_T12_axial_rotation	Abs_r3	Abs_r2	Abs_r1	Abs_t1	Abs_t2	neck_flexion	neck_bending	neck_rotation	arm_flex_r	arm_add_r	arm_rot_r	elbow_flex_r	pro_sup_r	wrist_flex_r	wrist_dev_r	arm_flex_l	arm_add_l	arm_rot_l	elbow_flex_l	pro_sup_l	wrist_flex_l	wrist_dev_l
2.388889	2.023178	-3.048102	86.605912	0.176164	0.962922	0.504827	10.813103	2.574444	-8.120069	12.753066	0.222583	29.716668	-0.661313	0.000000	6.909323	-3.056739	-9.166258	6.427511	0.112181	31.793229	13.174723	0.000000	0.184390	0.156150	0.557237	0.342430	0.207680	0.592065	0.302934	0.379664	0.592065	0.210739	0.379664	0.487583	0.171224	0.318422	0.452755	0.105360	0.241877	0.417928	1.317077	1.766405	3.099187	0.000000	0.000000	19.923092	0.480843	-3.959608	10.065662	-8.931927	39.839307	57.711481	65.048263	-5.912625	11.467037	14.946330	-11.096346	49.932379	57.167716	71.242043	-9.129183	10.055390
2.407407	1.986889	-3.066249	86.718926	0.175965	0.963022	0.504653	10.830326	2.519174	-8.130919	12.875159	0.224714	29.496815	-0.973778	0.000000	6.935460	-3.002231	-8.901663	6.437636	0.112358	31.519318	12.772993	0.000000	0.186470	0.151726	0.491940	0.346293	0.201796	0.522687	0.306351	0.368907	0.522687	0.213116	0.368907	0.430448	0.173156	0.309400	0.399701	0.106549	0.235024	0.368955	1.331934	1.716355	2.736024	0.000000	0.000000	19.973732	0.674844	-3.586727	10.154236	-8.869590	40.263486	57.565774	64.821074	-6.141894	11.327696	14.768306	-11.232252	50.043798	57.170425	70.633397	-9.514155	8.838134
2.425926	1.934106	-3.075033	86.752346	0.175892	0.963117	0.504574	10.848495	2.466698	-8.007044	12.973753	0.226435	29.285641	-1.323085	0.000000	6.949641	-2.949688	-8.857849	6.452450	0.112616	31.265294	12.520215	0.000000	0.186778	0.145244	0.450269	0.346865	0.193175	0.478410	0.306857	0.353147	0.478410	0.213468	0.353147	0.393985	0.173442	0.296182	0.365843	0.106725	0.224983	0.337701	1.334135	1.643031	2.504259	0.000000	0.000000	20.016312	0.883097	-3.267418	10.232417	-8.804989	40.610348	57.426247	64.752133	-6.340413	11.251033	14.616648	-11.346331	50.051773	57.169100	70.438698	-9.702655	8.012609
2.444444	1.861374	-3.091610	86.751466	0.175859	0.963167	0.504620	10.906422	2.394722	-7.869218	13.096988	0.228586	29.127257	-1.614886	0.000000	6.978784	-2.882105	-8.864509	6.465872	0.112851	31.017250	12.264633	0.000000	0.188088	0.136786	0.426584	0.349298	0.181925	0.453245	0.309010	0.332581	0.453245	0.214966	0.332581	0.373261	0.174659	0.278933	0.346599	0.107474	0.211881	0.319938	1.343495	1.547347	2.372531	0.000000	0.000000	20.064809	1.078207	-3.018339	10.301707	-8.753828	40.903922	57.297059	64.633565	-6.549992	11.215730	14.523418	-11.427067	50.050642	57.136889	70.428627	-9.683005	7.418438
2.462963	1.769987	-3.112379	86.702368	0.175895	0.963174	0.504760	10.976249	2.310250	-7.687615	13.197810	0.230345	29.014042	-1.812847	0.000000	7.013358	-2.798582	-8.875194	6.474530	0.113002	30.789521	11.948226	0.000000	0.190358	0.126266	0.424228	0.353514	0.167933	0.450743	0.312740	0.307002	0.450743	0.217560	0.307002	0.371200	0.176767	0.257481	0.344685	0.108771	0.195586	0.318171	1.359710	1.428343	2.359431	0.000000	0.000000	20.103123	1.286624	-2.856650	10.355283	-8.715034	41.126050	57.183060	64.484409	-6.742913	11.245906	14.506470	-11.492380	50.150134	57.069927	70.324514	-9.555471	6.868650
2.481481	1.670306	-3.123292	86.613822	0.175986	0.963165	0.504961	11.025314	2.225338	-7.467065	13.250812	0.231270	28.914016	-1.939118	0.000000	7.032315	-2.704736	-8.878429	6.468759	0.112901	30.578421	11.562704	0.000000	0.190893	0.114906	0.440481	0.354507	0.152824	0.468011	0.313617	0.279382	0.468011	0.218171	0.279382	0.385421	0.177263	0.234316	0.357891	0.109076	0.177989	0.330361	1.363527	1.299835	2.449825	0.000000	0.000000	20.148913	1.547037	-2.748520	10.386611	-8.687679	41.252420	57.089149	64.417006	-6.902154	11.315198	14.570065	-11.550660	50.392843	56.990168	70.283881	-9.500025	6.376212
2.500000	1.553732	-3.132842	86.508681	0.176108	0.963125	0.505235	11.080927	2.117719	-7.324390	13.304464	0.232207	28.858511	-1.912595	0.000000	7.053197	-2.596471	-8.924067	6.456921	0.112695	30.429593	11.250341	0.000000	0.191527	0.101579	0.468263	0.355685	0.135100	0.497529	0.314660	0.246978	0.497529	0.218896	0.246978	0.409730	0.177852	0.207139	0.380464	0.109439	0.157345	0.351197	1.368059	1.149078	2.604339	0.000000	0.000000	20.141663	1.854999	-2.701943	10.409510	-8.645642	41.293534	56.989996	64.333023	-7.051575	11.464013	14.683143	-11.595431	50.684778	56.925608	70.404381	-9.508518	6.141333
2.518519	1.430519	-3.133212	86.364884	0.176268	0.963073	0.505544	11.121188	1.998371	-7.276728	13.336858	0.232772	28.852550	-1.669833	0.000000	7.055110	-2.478045	-8.972182	6.422228	0.112089	30.322482	10.925990	0.000000	0.189883	0.087775	0.512481	0.352632	0.116740	0.544511	0.311959	0.213415	0.544511	0.217017	0.213415	0.448421	0.176325	0.178990	0.416391	0.108499	0.135963	0.384361	1.356316	0.992924	2.850264	0.000000	0.000000	20.147553	2.192131	-2.745704	10.410081	-8.617611	41.248037	56.928577	64.185521	-7.165447	11.639912	14.869605	-11.640188	51.106297	56.847294	70.502585	-9.500827	5.942983
2.537037	1.318503	-3.125575	86.217999	0.176419	0.963028	0.505834	11.125286	1.891514	-7.244427	13.303534	0.232190	28.866699	-1.354667	0.000000	7.048244	-2.366866	-9.002978	6.381653	0.111381	30.256517	10.623868	0.000000	0.185721	0.076286	0.551228	0.344902	0.101460	0.585680	0.305121	0.185482	0.585680	0.212260	0.185482	0.482324	0.172460	0.155562	0.447873	0.106121	0.118167	0.413421	1.326586	0.862962	3.065764	0.000000	0.000000	20.189443	2.571924	-2.773336	10.435744	-8.596935	41.226248	56.874676	64.181526	-7.248878	11.760258	15.011628	-11.691154	51.478470	56.829154	70.742730	-9.721745	5.789041
2.555556	1.205851	-3.151875	86.049928	0.176602	0.962925	0.506131	11.174119	1.787051	-7.237761	13.267834	0.231567	28.970134	-0.956195	0.000000	7.072473	-2.256378	-9.030208	6.319260	0.110292	30.228386	10.354342	0.000000	0.186267	0.066413	0.589146	0.345916	0.088329	0.625968	0.306018	0.161476	0.625968	0.212884	0.161476	0.515503	0.172967	0.135429	0.478681	0.106433	0.102873	0.441860	1.330485	0.751274	3.276655	0.000000	0.000000	20.241877	2.941452	-2.803015	10.464011	-8.567090	41.183464	56.828953	64.277458	-7.261384	11.849010	15.133976	-11.764772	51.847600	56.880026	71.075354	-10.084337	5.763906
2.574074	1.099182	-3.179504	85.856427	0.176805	0.962822	0.506418	11.220791	1.672774	-7.472616	13.207612	0.230516	29.184245	-0.180073	0.000000	7.101028	-2.151998	-9.055552	6.262740	0.109305	30.242922	10.101613	0.000000	0.185980	0.058513	0.630124	0.345384	0.077823	0.669507	0.305547	0.142270	0.669507	0.212557	0.142270	0.551359	0.172701	0.119321	0.511976	0.106269	0.090637	0.472593	1.328439	0.661916	3.504562	0.000000	0.000000	20.337275	3.312712	-2.860663	10.485730	-8.545141	41.095159	56.812151	64.483362	-7.161800	11.906903	15.244648	-11.838454	52.206011	57.005292	71.510698	-10.676995	5.962678
